<?xml version="1.0" encoding="utf-8"?>
<!-- Generator: Adobe Illustrator 28.0.0, SVG Export Plug-In . SVG Version: 6.00 Build 0)  -->
<svg version="1.1" id="Layer_1" xmlns="http://www.w3.org/2000/svg" xmlns:xlink="http://www.w3.org/1999/xlink" x="0px" y="0px"
	 viewBox="0 0 595.28 841.89" style="enable-background:new 0 0 595.28 841.89;" xml:space="preserve">
<style type="text/css">
	.st0{fill:#FFFFFF;}
</style>
<path class="st0" d="M89,556.89c0-116.67,0-233.33,0-350c116.67,0,233.33,0,350,0c0,116.67,0,233.33,0,350
	C322.33,556.89,205.67,556.89,89,556.89z M138.82,513.13c0.72,0,1.22,0,1.73,0c40.29,0,80.58,0.02,120.87-0.02
	c11.97-0.01,23.86-1.07,35.63-3.3c16.95-3.22,33.03-8.84,47.99-17.49c23.93-13.83,41.59-33.29,52.48-58.76
	c6.03-14.11,9.09-28.94,9.99-44.21c0.89-15.13-0.07-30.14-3.66-44.91c-6.41-26.34-19.96-48.29-40.82-65.62
	c-15.51-12.89-33.27-21.47-52.63-26.86c-16.28-4.53-32.91-6.39-49.76-6.41c-40-0.04-80.01-0.02-120.01-0.02c-0.55,0-1.11,0-1.76,0
	c0,9.83,0,19.46,0,29.28c39.63,0,79.15,0,118.84,0c0,0.91,0,1.63,0,2.36c0,44.5,0.02,89-0.03,133.5
	c-0.01,5.28-0.26,10.58-0.65,15.85c-0.55,7.4-2.05,14.63-4.45,21.66c-3.43,10.03-8.74,18.86-16.68,25.99
	c-8.1,7.28-17.62,11.79-28.1,14.39c-10.85,2.69-21.88,3.44-33.03,2.85c-12.17-0.65-23.83-3.36-34.91-8.5
	c-0.29-0.13-0.62-0.18-1.02-0.29C138.82,492.79,138.82,502.85,138.82,513.13z M138.74,314.48c0,0.93,0,1.67,0,2.4
	c0,36.19,0,72.38,0,108.57c0,0.46-0.06,0.92,0.02,1.36c0.07,0.42,0.21,0.88,0.46,1.21c3.73,4.98,7.89,9.57,12.8,13.43
	c10.26,8.07,21.8,11.28,34.72,8.86c7.1-1.33,12.86-4.86,16.6-11.16c1.29-2.18,2.3-4.58,3.12-6.98c1.81-5.34,2.19-10.9,2.2-16.5
	c0-10.7,0-21.4,0-32.09c0-22.31,0-44.61,0-66.92c0-0.72-0.04-1.43-0.07-2.18C185.24,314.48,162.1,314.48,138.74,314.48z"/>
<path d="M138.82,513.13c0-10.28,0-20.34,0-30.51c0.4,0.11,0.73,0.16,1.02,0.29c11.07,5.14,22.74,7.85,34.91,8.5
	c11.15,0.6,22.17-0.15,33.03-2.85c10.48-2.6,20.01-7.12,28.1-14.39c7.94-7.14,13.25-15.96,16.68-25.99
	c2.4-7.03,3.9-14.26,4.45-21.66c0.39-5.27,0.65-10.56,0.65-15.85c0.05-44.5,0.03-89,0.03-133.5c0-0.73,0-1.45,0-2.36
	c-39.69,0-79.21,0-118.84,0c0-9.82,0-19.46,0-29.28c0.65,0,1.21,0,1.76,0c40,0,80.01-0.03,120.01,0.02
	c16.85,0.02,33.49,1.88,49.76,6.41c19.36,5.39,37.12,13.97,52.63,26.86c20.86,17.33,34.41,39.28,40.82,65.62
	c3.59,14.77,4.55,29.78,3.66,44.91c-0.9,15.27-3.95,30.09-9.99,44.21c-10.89,25.47-28.55,44.93-52.48,58.76
	c-14.96,8.65-31.04,14.28-47.99,17.49c-11.77,2.23-23.66,3.29-35.63,3.3c-40.29,0.05-80.58,0.02-120.87,0.02
	C140.04,513.13,139.54,513.13,138.82,513.13z"/>
<path d="M138.74,314.48c23.37,0,46.5,0,69.83,0c0.03,0.75,0.07,1.47,0.07,2.18c0,22.31,0,44.61,0,66.92c0,10.7,0,21.4,0,32.09
	c0,5.6-0.39,11.16-2.2,16.5c-0.82,2.41-1.82,4.8-3.12,6.98c-3.74,6.31-9.51,9.83-16.6,11.16c-12.92,2.43-24.45-0.78-34.72-8.86
	c-4.91-3.86-9.06-8.45-12.8-13.43c-0.25-0.33-0.38-0.79-0.46-1.21c-0.08-0.44-0.02-0.91-0.02-1.36c0-36.19,0-72.38,0-108.57
	C138.74,316.15,138.74,315.41,138.74,314.48z"/>
</svg>
