<?xml version="1.0" encoding="utf-8"?>
<!-- Generator: Adobe Illustrator 28.0.0, SVG Export Plug-In . SVG Version: 6.00 Build 0)  -->
<svg version="1.1" id="Layer_1" xmlns="http://www.w3.org/2000/svg" xmlns:xlink="http://www.w3.org/1999/xlink" x="0px" y="0px"
	 viewBox="0 0 318 313.2" style="enable-background:new 0 0 318 313.2;" xml:space="preserve">
<path d="M33.3,289.2c0-10.3,0-20.3,0-30.5c0.4,0.1,0.7,0.2,1,0.3c11.1,5.1,22.7,7.9,34.9,8.5c11.1,0.6,22.2-0.1,33-2.9
	c10.5-2.6,20-7.1,28.1-14.4c7.9-7.1,13.2-16,16.7-26c2.4-7,3.9-14.3,4.5-21.7c0.4-5.3,0.6-10.6,0.6-15.9c0-44.5,0-89,0-133.5
	c0-0.7,0-1.5,0-2.4c-39.7,0-79.2,0-118.8,0c0-9.8,0-19.5,0-29.3c0.6,0,1.2,0,1.8,0c40,0,80,0,120,0c16.9,0,33.5,1.9,49.8,6.4
	c19.4,5.4,37.1,14,52.6,26.9c20.9,17.3,34.4,39.3,40.8,65.6c3.6,14.8,4.5,29.8,3.7,44.9c-0.9,15.3-4,30.1-10,44.2
	c-10.9,25.5-28.5,44.9-52.5,58.8c-15,8.6-31,14.3-48,17.5c-11.8,2.2-23.7,3.3-35.6,3.3c-40.3,0-80.6,0-120.9,0
	C34.5,289.2,34,289.2,33.3,289.2z"/>
<path d="M33.2,90.6c23.4,0,46.5,0,69.8,0c0,0.8,0.1,1.5,0.1,2.2c0,22.3,0,44.6,0,66.9c0,10.7,0,21.4,0,32.1c0,5.6-0.4,11.2-2.2,16.5
	c-0.8,2.4-1.8,4.8-3.1,7c-3.7,6.3-9.5,9.8-16.6,11.2c-12.9,2.4-24.4-0.8-34.7-8.9c-4.9-3.9-9.1-8.5-12.8-13.4
	c-0.2-0.3-0.4-0.8-0.5-1.2c-0.1-0.4,0-0.9,0-1.4c0-36.2,0-72.4,0-108.6C33.2,92.3,33.2,91.5,33.2,90.6z"/>
</svg>
