<?xml version="1.0" encoding="utf-8"?>
<!-- Generator: Adobe Illustrator 28.0.0, SVG Export Plug-In . SVG Version: 6.00 Build 0)  -->
<svg version="1.1" id="Layer_1" xmlns="http://www.w3.org/2000/svg" xmlns:xlink="http://www.w3.org/1999/xlink" x="0px" y="0px"
	 viewBox="0 0 318 313.2" style="enable-background:new 0 0 318 313.2;" xml:space="preserve">
<style type="text/css">
	.st0{fill:#E89E99;}
</style>
<path class="st0" d="M19.3,301.8c0-11.2,0-22.1,0-33.1c0.4,0.1,0.8,0.2,1.1,0.3c12,5.6,24.7,8.5,37.9,9.2c12.1,0.7,24-0.2,35.8-3.1
	c11.4-2.8,21.7-7.7,30.5-15.6c8.6-7.7,14.4-17.3,18.1-28.2c2.6-7.6,4.2-15.5,4.8-23.5c0.4-5.7,0.7-11.5,0.7-17.2
	c0.1-48.3,0-96.5,0-144.8c0-0.8,0-1.6,0-2.6c-43.1,0-85.9,0-128.9,0c0-10.7,0-21.1,0-31.8c0.7,0,1.3,0,1.9,0c43.4,0,86.8,0,130.2,0
	c18.3,0,36.3,2,54,7c21,5.8,40.3,15.2,57.1,29.1c22.6,18.8,37.3,42.6,44.3,71.2c3.9,16,4.9,32.3,4,48.7c-1,16.6-4.3,32.6-10.8,48
	c-11.8,27.6-31,48.7-56.9,63.7c-16.2,9.4-33.7,15.5-52.1,19c-12.8,2.4-25.7,3.6-38.7,3.6c-43.7,0.1-87.4,0-131.1,0
	C20.6,301.8,20,301.8,19.3,301.8z"/>
<path class="st0" d="M19.2,86.3c25.4,0,50.4,0,75.7,0c0,0.8,0.1,1.6,0.1,2.4c0,24.2,0,48.4,0,72.6c0,11.6,0,23.2,0,34.8
	c0,6.1-0.4,12.1-2.4,17.9c-0.9,2.6-2,5.2-3.4,7.6c-4.1,6.8-10.3,10.7-18,12.1c-14,2.6-26.5-0.8-37.7-9.6c-5.3-4.2-9.8-9.2-13.9-14.6
	c-0.3-0.4-0.4-0.9-0.5-1.3c-0.1-0.5,0-1,0-1.5c0-39.3,0-78.5,0-117.8C19.2,88.1,19.2,87.3,19.2,86.3z"/>
</svg>
